<svg width="25" height="24" viewBox="0 0 25 24" fill="none"
        xmlns="http://www.w3.org/2000/svg">
        <path fillRule="evenodd" clipRule="evenodd" d="M20.2071 5.70711C20.5976 5.31658 20.5976 4.68342 20.2071 4.29289C19.8166 3.90237 19.1834 3.90237 18.7929 4.29289L14.532 8.55382C13.9365 8.20193 13.2418 8 12.5 8C10.2909 8 8.5 9.79086 8.5 12C8.5 12.7418 8.70193 13.4365 9.05382 14.032L4.79289 18.2929C4.40237 18.6834 4.40237 19.3166 4.79289 19.7071C5.18342 20.0976 5.81658 20.0976 6.20711 19.7071L10.468 15.4462C11.0635 15.7981 11.7582 16 12.5 16C14.7091 16 16.5 14.2091 16.5 12C16.5 11.2582 16.2981 10.5635 15.9462 9.96803L20.2071 5.70711ZM13.018 10.0677C12.8528 10.0236 12.6792 10 12.5 10C11.3954 10 10.5 10.8954 10.5 12C10.5 12.1792 10.5236 12.3528 10.5677 12.518L13.018 10.0677ZM11.982 13.9323L14.4323 11.482C14.4764 11.6472 14.5 11.8208 14.5 12C14.5 13.1046 13.6046 14 12.5 14C12.3208 14 12.1472 13.9764 11.982 13.9323ZM16.2651 4.8207C15.1287 4.32049 13.8675 4 12.5 4C9.64754 4 7.25717 5.39462 5.49812 6.90595C3.73268 8.42276 2.50757 10.1376 1.96387 10.9698C1.55306 11.5985 1.55306 12.4015 1.96387 13.0302C2.42276 13.7326 3.36706 15.0637 4.71194 16.3739L6.12626 14.9596C4.9555 13.8229 4.11144 12.6531 3.68002 12C4.1904 11.2274 5.27832 9.73158 6.80147 8.42294C8.37402 7.07185 10.3157 6 12.5 6C13.2719 6 14.0135 6.13385 14.7193 6.36658L16.2651 4.8207ZM12.5 18C11.7282 18 10.9866 17.8661 10.2808 17.6334L8.73496 19.1793C9.87136 19.6795 11.1326 20 12.5 20C15.3525 20 17.7429 18.6054 19.502 17.0941C21.2674 15.5772 22.4925 13.8624 23.0362 13.0302C23.447 12.4015 23.447 11.5985 23.0362 10.9698C22.5773 10.2674 21.633 8.93627 20.2881 7.62611L18.8738 9.04043C20.0446 10.1771 20.8887 11.3469 21.3201 12C20.8097 12.7726 19.7218 14.2684 18.1986 15.5771C16.6261 16.9282 14.6843 18 12.5 18Z" fill="#F9F8F8" />
</svg>