<svg
        xmlns="http://www.w3.org/2000/svg"
        width="22"
        height="16"
        viewBox="0 0 22 16"
        fill="none"
>
    <path
            fill-rule="evenodd"
            clipRule="evenodd"
            d="M5.30147 11.5771C3.77832 10.2684 2.6904 8.7726 2.18002 8C2.6904 7.2274 3.77832 5.73158 5.30147 4.42294C6.87402 3.07185 8.81574 2 11 2C13.1843 2 15.1261 3.07185 16.6986 4.42294C18.2218 5.73158 19.3097 7.2274 19.8201 8C19.3097 8.7726 18.2218 10.2684 16.6986 11.5771C15.1261 12.9282 13.1843 14 11 14C8.81574 14 6.87402 12.9282 5.30147 11.5771ZM11 0C8.14754 0 5.75717 1.39462 3.99812 2.90595C2.23268 4.42276 1.00757 6.1376 0.463869 6.9698C0.0530592 7.5985 0.0530592 8.4015 0.463869 9.0302C1.00757 9.8624 2.23268 11.5772 3.99812 13.0941C5.75717 14.6054 8.14754 16 11 16C13.8525 16 16.2429 14.6054 18.002 13.0941C19.7674 11.5772 20.9925 9.8624 21.5362 9.0302C21.947 8.4015 21.947 7.5985 21.5362 6.9698C20.9925 6.1376 19.7674 4.42276 18.002 2.90595C16.2429 1.39462 13.8525 0 11 0ZM9 8C9 6.8954 9.8955 6 11 6C12.1046 6 13 6.8954 13 8C13 9.1046 12.1046 10 11 10C9.8955 10 9 9.1046 9 8ZM11 4C8.7909 4 7.00004 5.79086 7.00004 8C7.00004 10.2091 8.7909 12 11 12C13.2092 12 15 10.2091 15 8C15 5.79086 13.2092 4 11 4Z"
            fill="#E5EAFA"
    />
</svg>