<svg width="90" height="94" viewBox="0 0 90 94" fill="none" xmlns="http://www.w3.org/2000/svg"><path fill-rule="evenodd" clip-rule="evenodd" d="M27.2048 8.81728C26.6604 9.36161 26.9095 10.2911 27.653 10.4903L39.2967 13.6102C40.0403 13.8095 40.7207 13.1291 40.5215 12.3855L39.7146 9.37435C46.3578 8.57878 52.2004 9.84922 59.0718 12.7233C67.379 16.1979 74.2505 22.4345 78.5158 30.3705C82.781 38.3065 84.1761 47.451 82.4633 56.246C80.7506 65.0411 76.036 72.9427 69.1227 78.6047C62.3089 84.1851 53.7746 87.2497 44.9366 87.2972C44.6787 87.2986 44.4262 87.285 44.1699 87.2566C42.2848 87.0475 33.8506 86.0383 29.6736 84.2912C24.9538 82.317 20.664 79.4297 17.0526 75.7964C11.2498 69.9883 7.42763 62.5283 6.0985 54.4931C5.8756 53.1456 4.741 52.1103 3.37516 52.1103C1.83107 52.1103 0.604002 53.422 0.771641 54.957C1.87515 65.0607 5.05769 72.3047 12.801 80.0479C19.1036 86.3505 27.1167 90.6595 35.8271 92.4299C44.5375 94.2003 53.5539 93.3527 61.7362 89.9942C69.9184 86.6358 76.899 80.9173 81.7953 73.5619C86.6915 66.2065 89.2834 57.5447 89.2433 48.6716C89.2031 39.7986 86.5327 31.1129 81.5697 23.7129C76.6067 16.3129 69.5741 10.531 61.3611 7.09833C54.0384 4.03777 46.0706 2.9673 38.2666 3.9702L37.4016 0.741795C37.2023 -0.00177482 36.2729 -0.250822 35.7285 0.293509L27.2048 8.81728ZM58.7801 42.2218H57.2237V35.9965C57.2237 29.13 51.6396 23.5459 44.7731 23.5459C37.9065 23.5459 32.3224 29.13 32.3224 35.9965V42.2218H30.7661C28.193 42.2218 26.0971 44.3156 26.0971 46.8908V68.6795C26.0971 71.2547 28.193 73.3485 30.7661 73.3485H58.7801C61.3532 73.3485 63.4491 71.2547 63.4491 68.6795V46.8908C63.4491 44.3156 61.3532 42.2218 58.7801 42.2218ZM36.4726 35.9965C36.4726 31.4188 40.1954 27.6961 44.7731 27.6961C49.3508 27.6961 53.0735 31.4188 53.0735 35.9965V42.2218H36.4726V35.9965ZM46.8482 58.2458V62.9729C46.8482 64.1184 45.9206 65.048 44.7731 65.048C43.6256 65.048 42.698 64.1184 42.698 62.9729V58.2458C41.4633 57.5258 40.6229 56.2018 40.6229 54.6725C40.6229 52.3836 42.4842 50.5223 44.7731 50.5223C47.0619 50.5223 48.9233 52.3836 48.9233 54.6725C48.9233 56.2018 48.0829 57.5258 46.8482 58.2458Z" fill="#F9F8F8"></path></svg>